<?xml version="1.0" encoding="utf-8"?>
<!-- Generator: Adobe Illustrator 24.3.0, SVG Export Plug-In . SVG Version: 6.00 Build 0)  -->
<svg version="1.1" id="Layer_1" xmlns="http://www.w3.org/2000/svg" xmlns:xlink="http://www.w3.org/1999/xlink" x="0px" y="0px"
	 viewBox="0 0 153.6 152.6" style="enable-background:new 0 0 153.6 152.6;" xml:space="preserve">
<style type="text/css">
	.st0{fill:#FFD89E;}
	.st1{fill:#CB6F2C;}
	.st2{fill:#AF5819;}
	.st3{fill:#FFC65C;}
	.st4{fill:#FF6100;}
	.st5{fill:#292929;}
	.st6{fill:#EF3F00;}
</style>
<g>
	<path class="st0" d="M76.8,60.9L38,81.4v61.7h25.5v-27.5h26.5v27.5h25.5V81.6L76.8,60.9z"/>
	<path class="st1" d="M63.5,115.5h26.5v27.5H63.5L63.5,115.5z"/>
	<path class="st2" d="M79.2,115.5h10.9v27.5H79.2V115.5z"/>
	<path class="st3" d="M102.1,73.4l13.5,8.2v61h-13.5V73.4z"/>
	<path class="st3" d="M49.7,115.5h13.8v27.5H49.7V115.5z"/>
	<path class="st4" d="M126.4,89.8c-0.4,0-0.8-0.1-1.1-0.3L76.5,63.7L28.4,89.5c-1.2,0.6-2.7,0.2-3.3-1c-0.6-1.2-0.2-2.7,1-3.3
		l49.2-26.4c0.7-0.4,1.6-0.4,2.3,0l49.9,26.4c1.2,0.6,1.7,2.1,1,3.3C128.1,89.3,127.3,89.8,126.4,89.8L126.4,89.8z"/>
	<path class="st4" d="M97.5,7.1c-18.2,0-33,14.8-33,33c0,0,0,0,0,0c0,18.2,33,47.3,33,47.3s33-29,33-47.3
		C130.5,21.9,115.7,7.1,97.5,7.1C97.5,7.1,97.5,7.1,97.5,7.1z M97.5,54.7c-8.1,0-14.7-6.6-14.7-14.7c0-8.1,6.6-14.7,14.7-14.7
		c8.1,0,14.7,6.6,14.7,14.7c0,0,0,0,0,0C112.2,48.2,105.6,54.7,97.5,54.7C97.5,54.7,97.5,54.7,97.5,54.7z"/>
	<path class="st5" d="M144.8,140.6H8.8c-1.4,0-2.5,1.1-2.5,2.5c0,1.4,1.1,2.5,2.5,2.5h136c1.4,0,2.5-1.1,2.5-2.5
		C147.3,141.7,146.2,140.6,144.8,140.6L144.8,140.6z"/>
	<g>
		<path class="st6" d="M97.5,87.3c0,0,33-29,33-47.3c0-18.2-14.8-33-33-33l0,0C97.5,7.1,145.3,31.6,97.5,87.3z"/>
		<path class="st6" d="M99.3,54.6c-8,1-15.3-4.8-16.3-12.8c-1-8,4.8-15.3,12.8-16.3c0.6-0.1,1.2-0.1,1.8-0.1
			c-8.1,0-22.3,2.3-22.3,14.7c0,12.1,14.2,14.7,22.3,14.7C98.1,54.7,98.7,54.7,99.3,54.6z"/>
	</g>
</g>
</svg>
