<?xml version="1.0" encoding="utf-8"?>
<!-- Generator: Adobe Illustrator 24.3.0, SVG Export Plug-In . SVG Version: 6.00 Build 0)  -->
<svg version="1.1" id="Layer_1" xmlns="http://www.w3.org/2000/svg" xmlns:xlink="http://www.w3.org/1999/xlink" x="0px" y="0px"
	 viewBox="0 0 153.6 152.6" style="enable-background:new 0 0 153.6 152.6;" xml:space="preserve">
<style type="text/css">
	.st0{fill:#40596B;}
	.st1{fill:#FFFFFF;}
	.st2{fill:#CDD6E0;}
	.st3{fill:#ACB3BA;}
	.st4{fill:#F2F2F2;}
	.st5{fill:#FFD15C;}
	.st6{fill:#F8B64C;}
	.st7{fill:#FF7058;}
	.st8{fill:#E4EAEF;}
	.st9{fill:#F1543F;}
</style>
<g>
	<path class="st0" d="M133.8,38.1H22.9c-2.8,0-5,2.3-5,5v75.1c0,2.8,2.3,5,5,5h110.8c2.8,0,5-2.3,5-5V43.1
		C138.8,40.4,136.5,38.1,133.8,38.1z"/>
	<rect x="25.4" y="45.6" class="st1" width="105.8" height="69.8"/>
	<rect x="55.2" y="123.2" class="st2" width="46.1" height="13.6"/>
	<rect x="41.3" y="136.8" class="st3" width="74.1" height="3.3"/>
	<rect x="55.2" y="123.2" class="st3" width="46.1" height="3.8"/>
	<path class="st4" d="M122.2,47.4v64c0,2.3-1.8,4-4,4H38.3c-2.3,0-4-1.8-4-4v-64H122.2z"/>
	<g>
		<path class="st1" d="M78.9,65.3v9.6c-0.3,0-0.3,0-0.5,0s-0.3,0-0.5,0v-9.6H78.9z"/>
		<path class="st1" d="M78.9,102.1v9.6h-1v-9.6c0.3,0,0.3,0,0.5,0S78.6,102.1,78.9,102.1z"/>
		<path class="st1" d="M95,72.3l-6.8,6.8c-0.3-0.3-0.5-0.5-0.8-0.8l6.8-6.8L95,72.3z"/>
		<path class="st1" d="M69,98.5l-6.8,6.8l-0.8-0.8l6.8-6.8C68.5,98,68.8,98.3,69,98.5z"/>
		<path class="st1" d="M101.5,88v1h-9.3c0-0.3,0-0.3,0-0.5s0-0.3,0-0.5H101.5L101.5,88z"/>
		<path class="st1" d="M64.7,88.5c0,0.3,0,0.3,0,0.5h-9.3v-1h9.3C64.7,88,64.7,88.2,64.7,88.5z"/>
		<path class="st1" d="M95,104.3l-0.8,0.8l-6.5-6.5c0.3-0.3,0.5-0.5,0.8-0.8L95,104.3z"/>
		<path class="st1" d="M69,78.4c-0.3,0.3-0.5,0.5-0.8,0.8l-6.8-6.8l0.8-0.8L69,78.4z"/>
		<path class="st1" d="M73.6,75.6c-0.3,0-0.5,0.3-1,0.5l-2.3-5.3l1-0.5L73.6,75.6z"/>
		<path class="st1" d="M86.2,106.4l-1,0.5l-2.3-5.3c0.3,0,0.5-0.3,1-0.5L86.2,106.4z"/>
		<path class="st1" d="M66,82.7c-0.3,0.3-0.3,0.5-0.5,1l-5.3-2.3l0.5-1L66,82.7z"/>
		<path class="st1" d="M96.5,95.5l-0.5,1l-5.3-2.3c0.3-0.3,0.3-0.5,0.5-1L96.5,95.5z"/>
		<path class="st1" d="M66,94l-5.3,2.3l-0.5-1l5.3-2.3C65.8,93.5,65.8,93.8,66,94z"/>
		<path class="st1" d="M96.5,81.4l-5.3,2.3c0-0.3-0.3-0.5-0.5-1l5.3-2.3L96.5,81.4z"/>
		<path class="st1" d="M73.6,101.3l-2.3,5.3l-1-0.5l2.3-5.3C73.1,101.1,73.3,101.1,73.6,101.3z"/>
		<path class="st1" d="M86.2,70.6l-2,5.3c-0.3-0.3-0.5-0.3-1-0.5l2.3-5.3L86.2,70.6z"/>
	</g>
	<path class="st5" d="M117.1,19.2H39.6c-2.8,0-5,2.3-5,5v13.1h87.9V24.2C122.2,21.5,119.9,19.2,117.1,19.2z"/>
	<polygon class="st0" points="96.2,85.2 101,102.3 105.3,98 109.3,102.3 113.1,98.5 109.1,94.3 113.1,90 	"/>
	<ellipse class="st6" cx="67.5" cy="28.3" rx="3" ry="3"/>
	<ellipse class="st7" cx="55.9" cy="28.3" rx="3" ry="3"/>
	<ellipse class="st6" cx="44.3" cy="28.3" rx="3" ry="3"/>
	<path class="st8" d="M122.2,49.4v11.8c-1.5,1.3-3.5,1.8-5.5,1.8c-5.3,0-9.6-4.3-9.6-9.6c0,5.3-4.3,9.6-9.6,9.6
		c-5.3,0-9.6-4.3-9.6-9.6c0,5.3-4.3,9.6-9.6,9.6c-5.3,0-9.6-4.3-9.6-9.6c0,5.3-4.3,9.6-9.6,9.6s-9.6-4.3-9.6-9.6
		c0,5.3-4.3,9.6-9.6,9.6c-2,0-4-0.8-5.5-1.8V49.4C34.5,49.4,122.2,49.4,122.2,49.4z"/>
	<polygon class="st7" points="49.6,47.4 30.5,47.4 34.5,37.3 51.9,37.3 	"/>
	<polygon class="st2" points="68.8,47.4 49.6,47.4 51.9,37.3 69.5,37.3 	"/>
	<polygon class="st7" points="87.9,47.4 68.8,47.4 69.5,37.3 87.2,37.3 	"/>
	<polygon class="st2" points="107.1,47.4 87.9,47.4 87.2,37.3 104.8,37.3 	"/>
	<polygon class="st7" points="126.2,47.4 107.1,47.4 104.8,37.3 122.2,37.3 	"/>
	<g>
		<path class="st3" d="M49.6,51.7c0,5.3,4.3,9.6,9.6,9.6s9.6-4.3,9.6-9.6v-4.3H49.6V51.7L49.6,51.7z"/>
		<path class="st3" d="M87.9,47.4v4.3c0,5.3,4.3,9.6,9.6,9.6c5.3,0,9.6-4.3,9.6-9.6v-4.3C107.1,47.4,87.9,47.4,87.9,47.4z"/>
	</g>
	<g>
		<path class="st9" d="M30.5,51.7c0,5.3,4.3,9.6,9.6,9.6s9.6-4.3,9.6-9.6v-4.3H30.5V51.7z"/>
		<path class="st9" d="M68.8,51.7c0,5.3,4.3,9.6,9.6,9.6s9.6-4.3,9.6-9.6v-4.3H68.8V51.7L68.8,51.7z"/>
		<path class="st9" d="M107.1,47.4v4.3c0,5.3,4.3,9.6,9.6,9.6c5.3,0,9.6-4.3,9.6-9.6v-4.3C126.2,47.4,107.1,47.4,107.1,47.4z"/>
	</g>
	<ellipse class="st7" cx="78.4" cy="88.5" rx="14.9" ry="15.1"/>
	<g>
		<path class="st1" d="M75.8,93l-0.5-1.8h11.6v-8.8H73.1l-0.8-3.3h-4v1.5h3l3.5,13.9h12.6V93H75.8z M85.4,83.7v5.8H75.1l-1.5-5.8
			H85.4z"/>
		<ellipse class="st1" cx="78.1" cy="97.3" rx="1.8" ry="1.8"/>
		<ellipse class="st1" cx="84.6" cy="97.3" rx="1.8" ry="1.8"/>
	</g>
</g>
</svg>
