<?xml version="1.0" encoding="utf-8"?>
<!-- Generator: Adobe Illustrator 24.3.0, SVG Export Plug-In . SVG Version: 6.00 Build 0)  -->
<svg version="1.1" id="Layer_1" xmlns="http://www.w3.org/2000/svg" xmlns:xlink="http://www.w3.org/1999/xlink" x="0px" y="0px"
	 viewBox="0 0 153.6 152.6" style="enable-background:new 0 0 153.6 152.6;" xml:space="preserve">
<style type="text/css">
	.st0{fill:#494949;}
	.st1{fill:#292929;}
	.st2{fill:#E0C28D;}
	.st3{fill:#C8947B;}
	.st4{fill:#465E7B;}
	.st5{fill:#A9D5A5;}
	.st6{fill:#F7F4F4;}
	.st7{fill:#9AB4FB;}
	.st8{fill:#3A4E65;}
	.st9{fill:#DED7EB;}
	.st10{fill:#D2AC87;}
</style>
<g>
	<path class="st0" d="M126.1,129.1h-16.7v7.9c0,1.1,0.9,2,2,2h12.8c1.1,0,2-0.9,2-2V129.1z"/>
	<path class="st1" d="M120.3,129.1v7.8c0,1.1-0.9,2-2,2h5.8c1.1,0,2-0.9,2-2v-7.8H120.3z"/>
	<path class="st0" d="M42.7,129.1H26v7.9c0,1.1,0.9,2,2,2h12.8c1.1,0,2-0.9,2-2V129.1z"/>
	<path class="st1" d="M36.9,129.1v7.8c0,1.1-0.9,2-2,2h5.8c1.1,0,2-0.9,2-2v-7.8H36.9z"/>
	<g>
		<path class="st2" d="M101.2,68c2.2,0,4-1.8,4-4V17.7c0-2.2-1.8-4-4-4H84.4L76,17.4l-8.3-3.7H50.9c-2.2,0-4,1.8-4,4v46.2
			c0,2.2,1.8,4,4,4v1.3L72,68h8.1l21,1.3L101.2,68z"/>
		<path class="st3" d="M101.2,13.7h-5.8c2.2,0,4,1.8,4,4v46.2c0,2.2-1.8,4-4,4l-0.1,1.3h5.8l0.1-1.3c2.2,0,4-1.8,4-4V17.7
			C105.2,15.5,103.4,13.7,101.2,13.7z"/>
		<path class="st4" d="M81.4,30.2L77,28c-0.6-0.3-1.3-0.3-1.9,0l-4.4,2.2c-1.4,0.7-3-0.3-3-1.9V13.7h16.7v14.6
			C84.4,29.9,82.8,30.9,81.4,30.2L81.4,30.2z"/>
		<g>
			<path class="st5" d="M63.5,53.2h-8.3c-1,0-1.9-0.8-1.9-1.9c0-1,0.8-1.9,1.9-1.9h8.3c1,0,1.9,0.8,1.9,1.9
				C65.4,52.3,64.6,53.2,63.5,53.2z"/>
		</g>
		<path class="st6" d="M78,42.9h17c1.1,0,2,0.9,2,2v12.8c0,1.1-0.9,2-2,2H78c-1.1,0-2-0.9-2-2V44.9C76,43.8,76.9,42.9,78,42.9z"/>
		<g>
			<path class="st7" d="M87.5,53.2h-2.1c-1,0-1.9-0.8-1.9-1.9c0-1,0.8-1.9,1.9-1.9h2.1c1,0,1.9,0.8,1.9,1.9
				C89.4,52.3,88.6,53.2,87.5,53.2z"/>
		</g>
		<path class="st8" d="M78.6,13.7v14.6c0,0.2,0,0.3-0.1,0.5l2.8,1.4c1.4,0.7,3-0.3,3-1.9V13.7L78.6,13.7z"/>
		<path class="st9" d="M94.9,42.9h-5.8c1.1,0,2,0.9,2,2v12.7c0,1.1-0.9,2-2,2h5.8c1.1,0,2-0.9,2-2V44.9C96.9,43.8,96,42.9,94.9,42.9
			z"/>
		<g>
			<path class="st4" d="M63.5,61.5h-8.3c-1,0-1.9-0.8-1.9-1.9s0.8-1.9,1.9-1.9h8.3c1,0,1.9,0.8,1.9,1.9
				C65.4,60.7,64.6,61.5,63.5,61.5z"/>
		</g>
	</g>
	<g>
		<path class="st10" d="M72,122.2c2.2,0,4-1.8,4-4V72c0-2.2-1.8-4-4-4H55.2l-8.3,3.7L38.5,68H21.6c-2.2,0-4,1.8-4,4v46.2
			c0,2.2,1.8,4,4,4v1.3h50.2L72,122.2z"/>
		<path class="st3" d="M72,68h-5.8c2.2,0,4,1.8,4,4v46.2c0,2.2-1.8,4-4,4l-0.1,1.3h5.8l0.1-1.3c2.2,0,4-1.8,4-4V72
			C76,69.8,74.2,68,72,68z"/>
		<path class="st4" d="M52.2,84.4l-4.4-2.2c-0.6-0.3-1.3-0.3-1.9,0l-4.4,2.2c-1.4,0.7-3-0.3-3-1.9V68h16.7v14.6
			C55.2,84.1,53.5,85.1,52.2,84.4L52.2,84.4z"/>
		<g>
			<path class="st5" d="M34.3,107.4H26c-1,0-1.9-0.8-1.9-1.9s0.8-1.9,1.9-1.9h8.3c1,0,1.9,0.8,1.9,1.9S35.4,107.4,34.3,107.4z"/>
		</g>
		<path class="st6" d="M48.8,97.2h17c1.1,0,2,0.9,2,2v12.8c0,1.1-0.9,2-2,2h-17c-1.1,0-2-0.9-2-2V99.1C46.8,98,47.7,97.2,48.8,97.2
			L48.8,97.2z"/>
		<g>
			<path class="st7" d="M58.3,107.4h-2.1c-1,0-1.9-0.8-1.9-1.9s0.8-1.9,1.9-1.9h2.1c1,0,1.9,0.8,1.9,1.9S59.3,107.4,58.3,107.4z"/>
		</g>
		<path class="st8" d="M49.4,68v14.6c0,0.2,0,0.3-0.1,0.5l2.8,1.4c1.4,0.7,3-0.3,3-1.9V68H49.4z"/>
		<path class="st9" d="M65.7,97.2h-5.8c1.1,0,2,0.9,2,2v12.7c0,1.1-0.9,2-2,2h5.8c1.1,0,2-0.9,2-2V99.2
			C67.7,98.1,66.8,97.2,65.7,97.2z"/>
		<g>
			<path class="st4" d="M34.3,115.8H26c-1,0-1.9-0.8-1.9-1.9s0.8-1.9,1.9-1.9h8.3c1,0,1.9,0.8,1.9,1.9
				C36.2,114.9,35.4,115.8,34.3,115.8z"/>
		</g>
	</g>
	<g>
		<path class="st2" d="M130.4,122.2c2.2,0,4-1.8,4-4V72c0-2.2-1.8-4-4-4h-16.8l-8.3,3.7L96.9,68H80.1c-2.2,0-4,1.8-4,4v46.2
			c0,2.2,1.8,4,4,4v1.3h50.2L130.4,122.2z"/>
		<path class="st3" d="M130.4,68h-5.8c2.2,0,4,1.8,4,4v46.2c0,2.2-1.8,4-4,4l-0.1,1.3h5.8l0.1-1.3c2.2,0,4-1.8,4-4V72
			C134.5,69.8,132.7,68,130.4,68z"/>
		<path class="st4" d="M110.6,84.4l-4.4-2.2c-0.6-0.3-1.3-0.3-1.9,0l-4.4,2.2c-1.4,0.7-3-0.3-3-1.9V68h16.7v14.6
			C113.6,84.1,112,85.1,110.6,84.4L110.6,84.4z"/>
		<g>
			<path class="st5" d="M92.7,107.4h-8.3c-1,0-1.9-0.8-1.9-1.9s0.8-1.9,1.9-1.9h8.3c1,0,1.9,0.8,1.9,1.9S93.8,107.4,92.7,107.4z"/>
		</g>
		<path class="st6" d="M107.2,97.2h17c1.1,0,2,0.9,2,2v12.8c0,1.1-0.9,2-2,2h-17c-1.1,0-2-0.9-2-2V99.1
			C105.2,98,106.1,97.2,107.2,97.2z"/>
		<g>
			<path class="st7" d="M116.7,107.4h-2.1c-1,0-1.9-0.8-1.9-1.9s0.8-1.9,1.9-1.9h2.1c1,0,1.9,0.8,1.9,1.9S117.8,107.4,116.7,107.4z"
				/>
		</g>
		<path class="st8" d="M107.8,68v14.6c0,0.2,0,0.3-0.1,0.5l2.8,1.4c1.4,0.7,3-0.3,3-1.9V68H107.8z"/>
		<path class="st9" d="M124.1,97.2h-5.8c1.1,0,2,0.9,2,2v12.7c0,1.1-0.9,2-2,2h5.8c1.1,0,2-0.9,2-2V99.2
			C126.1,98.1,125.2,97.2,124.1,97.2z"/>
		<g>
			<path class="st4" d="M92.7,115.8h-8.3c-1,0-1.9-0.8-1.9-1.9s0.8-1.9,1.9-1.9h8.3c1,0,1.9,0.8,1.9,1.9S93.8,115.8,92.7,115.8z"/>
		</g>
	</g>
	<path class="st1" d="M136.7,130.6H15.4c-1.1,0-2-0.9-2-2v-4.4c0-1.1,0.9-2,2-2h121.3c1.1,0,2,0.9,2,2v4.4
		C138.6,129.7,137.8,130.6,136.7,130.6z"/>
	<g>
		<path class="st0" d="M124.2,122.2v8.3h3.8v-8.3H124.2z"/>
		<path class="st1" d="M24.1,122.2v8.3h3.8v-8.3H24.1z"/>
	</g>
</g>
</svg>
