<?xml version="1.0" encoding="utf-8"?>
<!-- Generator: Adobe Illustrator 24.3.0, SVG Export Plug-In . SVG Version: 6.00 Build 0)  -->
<svg version="1.1" id="Layer_1" xmlns="http://www.w3.org/2000/svg" xmlns:xlink="http://www.w3.org/1999/xlink" x="0px" y="0px"
	 viewBox="0 0 153.6 152.6" style="enable-background:new 0 0 153.6 152.6;" xml:space="preserve">
<style type="text/css">
	.st0{fill:#D6B24E;}
	.st1{fill:#CBA64A;}
	.st2{fill:#BA9A43;}
	.st3{fill:#DAD7DC;}
	.st4{fill:#B0B1B5;}
	.st5{fill:#509FD7;}
	.st6{fill:#ECECEC;}
</style>
<g>
	<path class="st0" d="M131.1,49.8v63.5l-55,31.8l-55-31.8V49.8L76,18L131.1,49.8z"/>
	<path class="st1" d="M21,49.8v63.5l55,31.8V18L21,49.8z"/>
	<path class="st2" d="M131.1,49.8L131.1,49.8L76,18L21,49.8v0l55,31.8L131.1,49.8z"/>
	<path class="st3" d="M87.8,105.4l55-31.8l-11.7-23.9L76,81.5L87.8,105.4z"/>
	<path class="st3" d="M64.3,105.4l-55-31.8L21,49.8l55,31.8L64.3,105.4z"/>
	<path class="st4" d="M93.7,11.5l55,31.8l-17.7,6.5L76,18L93.7,11.5z"/>
	<path class="st4" d="M58.3,11.5l-55,31.8L21,49.8L76,18L58.3,11.5z"/>
	<path class="st5" d="M113.5,47.8c0,4.8-0.9,9.4-2.5,13.6L76,81.5l-35-20.2c-1.7-4.2-2.5-8.8-2.5-13.6c0-3,0.4-5.9,1-8.7
		C43.5,22.6,58.3,10.3,76,10.3c17.7,0,32.6,12.3,36.5,28.8C113.2,41.9,113.5,44.8,113.5,47.8z"/>
	<path class="st6" d="M113.3,43.8c-0.1-0.5-0.2-1-0.5-1.4c-0.8-1.9-2.9-3.4-4.9-2.8c-0.9,0.2-1.8,0.9-2.6,0.5c0,0.2,0.1,0.3,0.2,0.5
		c1.8,3.2,1.8,7.2,0.2,10.5l0,0.1c-0.8-0.7-1.3-1.7-1.4-2.8c-0.6,0.8-1.2,1.8-1.1,2.9c0.1,1,1.3,2,2.2,1.4c0.7-0.4,1.3-1.7,2-1.3
		c0.2,0.1,0.3,0.3,0.4,0.5c1.1,2.2,0,4.7-1.4,6.7c-1.5,1.9-3.3,3.6-4.1,5.9c-0.2,0.7-0.4,1.5-0.5,2.3L86,75.8
		c0.1-0.8,0.3-1.5,0.3-1.9c0-0.5,0.1-1,0.3-1.4c0.4-1.1,1.5-1.9,1.7-3.1c0.3-2-2.3-3.5-2.1-5.5c0.1-0.6,0.4-1.1,0.5-1.7
		c0.2-1-0.2-2.2-1.1-2.7c-0.9-0.6-2.1-0.6-3-0.1c-0.4,0.3-0.7,0.6-1.2,0.8c-1.2,0.6-2.6,0-3.9-0.3c-0.1,0-0.2,0-0.3-0.1
		c-2.7-0.5-5.1-2.2-6-4.9c-0.2-0.8-0.5-1.5-0.7-2.3c-0.2-0.9-0.4-1.8-0.2-2.7c0.3-1.1,1.1-1.9,1.7-2.8c0.9-1.3,1.4-2.9,2.4-4.2
		c1.3-1.7,3.2-2.9,5-4c1-0.6,2-1.2,3.1-1.3c2.7-0.4,4.9,1.8,7.4,2.7c1.7,0.6,3.6,0.6,5.4,0.6h3.9c0.2,0,0.4,0,0.6-0.1
		c0.4-0.2,0.6-0.7,0.6-1.1c0.1-1.3-1-2.6-2.3-2.7c-0.9-0.1-1.9,0.3-2.6-0.3c-0.7-0.6-0.7-2.1-1.7-2.1c-0.5,0-0.9,0.6-0.8,1.2
		c0.1,0.5,0.4,1,0.7,1.4c-0.8,0.4-1.7-0.4-2.1-1.3c-0.4-1.1-0.4-2.3-1.5-3c-0.7-0.4-1.4-0.1-1.5,0.6c-0.1,0.6,0.4,1,0.8,1.4
		c0.3,0.4,0.5,1,0.1,1.3c-1.4-0.3-2.6-1.3-3.1-2.7c-2.9-0.9-5,4.5-7.9,3.5c-0.7-1.1-0.2-2.7,0.9-3.5c0.5-0.4,1-0.6,1.5-0.8
		c0.8-0.3,1.2-1.2,0.7-1.9l0-0.1c-0.5-0.6-0.2-1.5,0.5-1.9l5.8-2.7c0.3-0.2,0.7-0.3,0.9-0.6c0,0,0.1-0.1,0.1-0.2
		c0.2-0.3,0.2-0.7,0.3-1.1c0-0.2,0.1-0.3,0.1-0.5c0.3-1.2-0.9-2.3-2-1.7l0,0c0.1-0.5,0.2-1,0-1.5c-0.2-0.5-0.8-0.8-1.2-0.6
		c-0.6,0.6-0.3,1.6,0.1,2.3c0.3,0.6,0.7,1.2,0.7,1.9c0,0.3-0.1,0.5-0.2,0.8c-0.3,0.5-0.9,0.6-1.3,0.3c-0.6-0.4-0.1-0.9-0.3-1.4
		c-0.2-0.4-0.7-0.4-1.2-0.6c-0.4-0.2-0.6-0.7-0.6-1.1c0-0.5,0.2-1.1,0.5-1.6c0.5-0.9,1.2-2,0.7-2.8c1.8-0.6,4,0,5.1,1.5
		c-0.5-0.8-0.4-1.8,0.2-2.5c0.2-0.2,0.4-0.4,0.4-0.6c0.2-0.6-0.6-1-1.2-1.3c-1.4-0.5-2.7-1.4-3.7-2.4c-0.4,0.2-0.7,0.3-1.1,0.2
		c0.4,0.9-0.1,2-1,2.5c0.4-0.6-0.3-1.4-1-1.3c-0.7,0-1.2,0.5-1.7,1c-0.5,0.5-0.9,1.1-1.5,1.3c-0.5,0.2-1,0.2-1.5,0.2
		c-1.4,0.2-2.5,1.3-3.7,2.1c-1.2,0.8-2.7,1.4-4,0.7c0-1.7,1.7-2.7,3.1-3.7c1.4-1,2.6-2.8,1.6-4.2c-0.6-0.2-1.3,0.3-1.5,0.9
		c-0.7-0.3-1.5-0.6-2.2-0.8c-0.1,2-2.6,3.5-4.4,2.6c-0.3-0.2-0.6-0.4-1-0.5c-1-0.3-2,0.3-2.6,1.2c-0.6,0.8-1,1.8-1.8,2.5
		c1.8-1.2,3.9-1.9,6.1-2c-0.5,0.4-0.7,1.1-0.7,1.7c0.3-0.5,1.2-0.1,1.2,0.5c0,0.6-0.5,1.1-0.8,1.6c-1.1,1.5-1.6,3.3-1.9,5.2
		c-0.1,0.5-0.1,1-0.2,1.5c-0.7,0-1.4,0-2,0c0,0,0-0.1,0-0.1c-0.4-1.4,0.4-3.1,1.7-3.7c-1.1-0.7-2.5-0.8-3.7-0.3
		c0.5,0.3,0.9,0.7,1.4,1c-0.8,0-1.7,0.1-2.4,0.4c0.8,0.2,1.3,1.3,0.8,2c-4.4-1.1-9.6,0.1-12.2,3.8c-0.7,1-1.2,2-1.9,3
		c-1.1,1.6-2.6,2.8-3.6,4.4c-0.2,0.4-0.4,0.8-0.5,1.2c-0.5,1.4-0.5,3,0.6,4.1c0.5-0.4,1.3,0,1.7,0.5c0.4,0.6,0.5,1.3,0.9,1.8
		c0.4,0.5,0.9,0.7,1.3,1.1c1.6,1.6,1,4.8,2.9,5.8c0.4,0.2,0.9,0.3,1.1,0.7c0.2,0.3,0.1,0.7,0,1l-0.8,3.2c3,1.5,5.8,3.4,8.3,5.6
		c0.4,0.3,0.7,0.7,0.8,1.1c0.1,0.5-0.1,1-0.3,1.4c-0.7,1.6-1.5,3.2-2.2,4.8c-0.2,0.4-0.4,0.8-0.6,1.1l-14.2-8.2c0,0,0,0,0,0
		c-0.7-1.4-1-3.1-1.2-4.7c-0.4-2.9-0.7-5.9,0.1-8.7c0.4-1.2,0.9-2.5,0.8-3.7c-0.1-0.8-0.5-1.5-0.7-2.2c-0.4-1.1-0.7-2.3-0.7-3.5
		c0-0.3,0-0.5,0-0.8c4.3-16,18.9-27.8,36.2-27.8c17.7,0,32.6,12.3,36.5,28.8C112.9,40.6,113.2,42.2,113.3,43.8z"/>
</g>
</svg>
