<svg height="511pt" viewBox="0 0 511 511.99848" width="511pt" xmlns="http://www.w3.org/2000/svg"><path d="m462.347656 442.007812-106.054687-106.070312-21.347657 21.34375 106.195313 105.933594zm0 0"/><path d="m48.527344 71.582031 106.0625 106.0625 21.195312-21.195312-106.054687-106.070313zm0 0"/><path d="m419.851562 484.503906-106.066406-106.066406-21.140625 21.132812c-62.460937-34.699218-145.816406-117.042968-180.492187-179.488281l21.289062-21.289062-106.0625-106.0625-.375.378906c-26.574218 26.558594-34 66.957031-18.472656 100.5625 40.925781 88.460937 154.695312 239.839844 311.828125 310.855469 33.882813 15.292968 73.226563 6.246094 98.730469-19.261719zm0 0"/><path d="m177.558594 57.019531 21.210937 21.210938c64.335938-64.335938 171.015625-64.335938 235.351563 0 64.335937 64.335937 64.335937 170.011719 0 234.347656l21.210937 21.210937c76.023438-76.023437 76.023438-200.746093 0-276.769531-76.027343-76.023437-201.746093-76.027343-277.773437 0zm0 0"/><path d="m268.898438 181-6.328126 3.164062c-21.664062 10.824219-35.125 32.605469-35.125 56.835938v15h90v-30h-56.5c3.179688-6.371094 8.378907-11.675781 15.042969-15l6.328125-3.164062c21.667969-10.824219 35.128906-32.609376 35.128906-56.835938 0-24.816406-20.1875-45-45-45-24.816406 0-45 20.183594-45 45v15h30v-15c0-8.277344 6.722657-15 15-15 8.273438 0 15 6.722656 15 15 0 12.789062-7.105468 24.285156-18.546874 30zm0 0"/><path d="m347.445312 106v90h60v60h30v-150h-30v60h-30v-60zm0 0"/></svg>