<svg id="Capa_1" enable-background="new 0 0 511.999 511.999" height="512" viewBox="0 0 511.999 511.999" width="512" xmlns="http://www.w3.org/2000/svg"><g><path d="m381.546 357.581c4.143 0 7.5-3.357 7.5-7.5v-21.037l6.792 4.769c1.311.921 2.814 1.363 4.303 1.363 2.361 0 4.686-1.112 6.145-3.191 2.381-3.39 1.562-8.067-1.828-10.447l-18.602-13.062c-2.586-1.816-6.033-1.816-8.619 0l-18.602 13.062c-3.391 2.38-4.209 7.058-1.828 10.447 2.381 3.391 7.058 4.211 10.447 1.828l6.792-4.769v21.037c0 4.142 3.357 7.5 7.5 7.5z"/><path d="m239.352 230.554h71.096c4.143 0 7.5-3.357 7.5-7.5s-3.357-7.5-7.5-7.5h-71.096c-4.142 0-7.5 3.357-7.5 7.5s3.358 7.5 7.5 7.5z"/><path d="m239.352 260.229h43.276c4.143 0 7.5-3.357 7.5-7.5s-3.357-7.5-7.5-7.5h-43.276c-4.142 0-7.5 3.357-7.5 7.5s3.358 7.5 7.5 7.5z"/><path d="m510.755 179.448-62.932-95.145c-1.389-2.1-3.738-3.362-6.256-3.362h-244.584-126.551c-2.517 0-4.867 1.263-6.255 3.362l-22.957 34.707c-2.285 3.455-1.337 8.108 2.118 10.394 3.454 2.282 8.107 1.336 10.393-2.118l20.732-31.345h108.567l-53.01 80.145h-108.567l15.732-23.785c2.285-3.455 1.337-8.108-2.118-10.394-3.455-2.283-8.108-1.336-10.393 2.118l-23.43 35.423c-1.523 2.303-1.658 5.257-.351 7.688 1.307 2.433 3.845 3.949 6.606 3.949h55.432v220.763c0 10.593 8.618 19.21 19.21 19.21h145.932c4.142 0 7.5-3.357 7.5-7.5s-3.358-7.5-7.5-7.5h-23.59v-302.683l49.176 74.348c1.389 2.1 3.738 3.362 6.255 3.362h88.036c4.143 0 7.5-3.357 7.5-7.5s-3.357-7.5-7.5-7.5h-84.005l-53.01-80.145h226.601l53.01 80.145h-112.608c-4.143 0-7.5 3.357-7.5 7.5s3.357 7.5 7.5 7.5h56.13v220.763c0 2.321-1.889 4.21-4.21 4.21h-71.051v-36.507c0-4.143-3.357-7.5-7.5-7.5h-64.063c-4.143 0-7.5 3.357-7.5 7.5v36.507h-21.684c-4.142 0-7.5 3.357-7.5 7.5s3.358 7.5 7.5 7.5h171.798c10.593 0 19.21-8.617 19.21-19.21v-220.762h55.432c2.761 0 5.299-1.517 6.606-3.949s1.172-5.386-.351-7.689zm-432.823 232.4v-220.762h56.119c2.517 0 4.867-1.263 6.255-3.362l49.177-74.348v302.683h-107.341c-2.322-.001-4.21-1.889-4.21-4.211zm216.812 4.21v-29.007h49.063v29.007z"/></g></svg>