<?xml version="1.0" encoding="utf-8"?>
<!-- Generator: Adobe Illustrator 24.3.0, SVG Export Plug-In . SVG Version: 6.00 Build 0)  -->
<svg version="1.1" id="Layer_1" xmlns="http://www.w3.org/2000/svg" xmlns:xlink="http://www.w3.org/1999/xlink" x="0px" y="0px"
	 viewBox="0 0 500 500" style="enable-background:new 0 0 500 500;" xml:space="preserve">
<style type="text/css">
	.st0{fill:#C3CDDD;}
	.st1{fill:#B3BCC9;}
	.st2{fill:#E1E7F4;}
	.st3{fill:#EDB87E;}
	.st4{fill:#E4A970;}
	.st5{fill:#F4C48B;}
	.st6{fill:#F4E0CB;}
	.st7{fill:#EFEFEF;}
	.st8{fill:#DDDDDD;}
	.st9{fill:#647892;}
	.st10{fill:#4D6682;}
	.st11{fill:#7D93AA;}
</style>
<g>
	<path class="st0" d="M198.6,443.4c-14.1-3.8-39.1,7.7-58-3.2c-19.2-11.1-21.7-38.6-31.8-48.7c-10.1-10.1-37.6-12.6-48.7-31.8
		c-6.6-11.5-5-25.1-3.6-37.1c2.4-20.6,1.9-22.2-10-38c-7.4-9.9-15.8-21-15.8-34.8c0-22.5,22.6-38.4,26.2-51.9
		c3.8-14.1-7.7-39.1,3.2-58c11.1-19.2,38.6-21.7,48.7-31.8c10.1-10.1,12.6-37.6,31.8-48.7c19-11,43.9,0.5,58-3.2
		c13.5-3.6,29.4-26.2,51.9-26.2c22.5,0,38.4,22.6,51.9,26.2c14.1,3.8,39.1-7.7,58,3.2c19.2,11.1,21.7,38.6,31.8,48.7
		c10.1,10.1,37.6,12.6,48.7,31.8c11,19-0.5,43.9,3.2,58c3.6,13.4,26.2,29.4,26.2,51.9c0,22.5-22.6,38.4-26.2,51.9
		c-3.8,14.2,7.7,39.1-3.2,58c-11.1,19.2-38.6,21.7-48.7,31.8c-10.1,10.1-12.6,37.6-31.8,48.7c-18.9,10.9-44-0.5-58,3.2
		c-13.5,3.6-29.4,26.2-51.9,26.2C228,469.6,212.1,447,198.6,443.4z"/>
	<path class="st1" d="M155,311c-48.2-83.5-36.9-184.9,20.8-255.3c-11.5-1.3-24.4-2.5-35.3,3.8c-19.2,11.1-21.7,38.6-31.8,48.7
		c-10.1,10.1-37.6,12.6-48.7,31.8c-11,19,0.5,43.9-3.2,58c-3.6,13.5-26.2,29.4-26.2,51.9c0,13.8,8.4,24.9,15.8,34.8
		c11.9,15.8,12.5,17.4,10,38c-1.4,12-3,25.6,3.6,37.1c11.1,19.2,38.6,21.7,48.7,31.8c10.1,10.1,12.6,37.6,31.8,48.7
		c19,11,43.9-0.5,58,3.2c13.5,3.6,29.4,26.2,51.9,26.2c22.5,0,38.4-22.6,51.9-26.2c14.1-3.8,39.1,7.7,58-3.2
		c7.4-4.3,12.3-11,16.1-18.2C289.9,432.3,201.4,391.3,155,311z"/>
	<path class="st2" d="M349.3,421c10.4-6,13.4-31.3,27.2-45.1c13.6-13.6,39.2-16.9,45.1-27.2c5.9-10.3-4.1-33.5,1-52.7
		c5-18.5,25.4-33.7,25.4-46.1c0-12.4-20.5-27.6-25.4-46.1c-5.1-19,4.9-42.5-1-52.7c-6-10.4-31.3-13.4-45.1-27.2
		c-13.6-13.6-16.9-39.2-27.2-45.1c-10.3-5.9-33.5,4.1-52.7-1c-18.5-5-33.7-25.4-46.1-25.4c-12.4,0-27.6,20.5-46.1,25.4
		c-18.8,5-42.6-4.8-52.7,1c-10.4,6-13.4,31.3-27.2,45.1c-13.6,13.6-39.2,16.9-45.1,27.2c-5.9,10.3,4.1,33.5-1,52.7
		c-5,18.5-25.4,33.7-25.4,46.1c0,6.3,5.5,13.7,11.3,21.4c15.3,20.4,17.5,27.3,14.3,54c-1.1,9-2.2,18.3,0.8,23.4
		c6,10.4,31.3,13.4,45.1,27.2c13.6,13.6,16.9,39.2,27.2,45.1c10.3,5.9,33.5-4.1,52.7,1c18.6,5,33.7,25.4,46.1,25.4
		c6.3,0,13.7-5.5,21.4-11.3c13.2-10,21.6-15.6,37.5-15.6C324.2,420.4,341.4,425.5,349.3,421z"/>
	<path class="st0" d="M309.4,420.4c1.3,0,2.7,0,4,0.1C249.2,409.9,190.1,371.7,155,311c-43.5-75.4-38.5-165.5,5.4-234.1
		c-3.5,0.1-6.5,0.6-8.8,1.9c-10.4,6-13.4,31.3-27.2,45.1c-13.6,13.6-39.2,16.9-45.1,27.2c-5.9,10.3,4.1,33.5-1,52.7
		c-5,18.5-25.4,33.7-25.4,46.1c0,6.3,5.5,13.7,11.3,21.4c15.3,20.4,17.5,27.3,14.3,54c-1.1,9-2.2,18.3,0.8,23.4
		c6,10.4,31.3,13.4,45.1,27.2c13.6,13.6,16.9,39.2,27.2,45.1c10.3,5.9,33.5-4.1,52.7,1c18.6,5,33.7,25.4,46.1,25.4
		c6.3,0,13.7-5.5,21.4-11.3C285.2,426.1,293.5,420.4,309.4,420.4z"/>
	<path class="st3" d="M281.8,194.8L281.8,194.8h-7.1c-3.8,0-6.4-3.9-4.8-7.5l0,0l0,0c6.3-15.3,11.6-31,15.7-47
		c2.1-10.8-5.9-21-16.9-21.5c-7.7-0.3-14.7,4.2-17.6,11.4c-9.4,22.6-11.4,38.8-34.3,56.4c-10,7.7-34.8,12.6-34.8,12.6h-0.1h-16
		v120.5l26.1-0.2c3,0,5.9,0.9,8.4,2.5c16.9,11.2,36.7,17.1,57,16.9h56.9V194.8L281.8,194.8L281.8,194.8L281.8,194.8z"/>
	<path class="st4" d="M274.6,194.8c-2.6,0-4.6-1.8-5.1-4c0,0.2,0,0.5,0,0.7c0,0.3,3.4,34.7-24.5,54.8c-3,2.1-3.6,6.3-1.5,9.3
		c1.3,1.8,3.3,2.7,5.4,2.7c1.3,0,2.7-0.4,3.9-1.3c27.7-20,30.3-50.6,30.2-62.3h-1.2L274.6,194.8L274.6,194.8z"/>
	<g>
		<path class="st5" d="M346.5,339h-40.8c-10,0-18.1-8.1-18.1-18.1l0,0c0-10,8.1-18.1,18.1-18.1h40.8c10,0,18.1,8.1,18.1,18.1l0,0
			C364.6,330.9,356.5,339,346.5,339z"/>
		<path class="st5" d="M349.2,303.6h-43.5c-10,0-18.1-8.1-18.1-18.1l0,0c0-10,8.1-18.1,18.1-18.1h43.5c10,0,18.1,8.1,18.1,18.1l0,0
			C367.3,295.5,359.2,303.6,349.2,303.6z"/>
		<path class="st5" d="M351.8,267.4h-46.1c-10,0-18.1-8.1-18.1-18.1l0,0c0-10,8.1-18.1,18.1-18.1h46.1c10,0,18.1,8.1,18.1,18.1l0,0
			C370,259.2,361.9,267.4,351.8,267.4z"/>
		<path class="st5" d="M354.6,231.1H306c-10,0-18.1-8.1-18.1-18.1v0c0-10,8.1-18.1,18.1-18.1h48.7c10,0,18.1,8.1,18.1,18.1v0
			C372.7,223,364.6,231.1,354.6,231.1z"/>
	</g>
	<path class="st6" d="M268.5,136l5.3-16.1c-1.6-0.6-3.4-0.9-5.2-1c-7.7-0.3-14.7,4.2-17.6,11.4c-1.8,4.4-3.3,8.1-4.7,12l4.7,1.9
		C258.1,147,266.1,143.3,268.5,136z"/>
	<path class="st4" d="M194,249.2c0-20.2,4.2-39.4,11.9-56.8c-11,4.3-23.9,6.9-23.9,6.9h-0.1h-16v120.5l26.1-0.2c3,0,5.9,0.9,8.4,2.5
		c6.5,4.4,13.5,7.9,20.8,10.6C204.1,309.3,194,280.4,194,249.2z"/>
	<path class="st7" d="M132.2,337.2V186.9h33c1.8,0,3.3,1.5,3.3,3.3V334c0,1.8-1.5,3.3-3.3,3.3L132.2,337.2L132.2,337.2z"/>
	<path class="st8" d="M165.2,299.5h-33v37.7h33c1.8,0,3.3-1.5,3.3-3.3v-37.7C168.4,298,167,299.5,165.2,299.5z"/>
	<path class="st9" d="M78.4,203.7c-5,18.5-25.4,33.7-25.4,46.1c0,6.3,5.5,13.7,11.3,21.4c15.3,20.4,17.5,27.3,14.3,54
		c-0.6,5.4-1.3,11-1.1,15.6c20.1,0.2,42.1,0.3,52.6,0.3c2.6,0,4.7-2.1,4.7-4.7V187c0-2.2-1.8-4-4-4c-9.8,0-31.5-0.1-51.3-0.2
		C80.1,189.7,80.2,196.8,78.4,203.7z"/>
	<path class="st10" d="M130.2,303.9c-6.2,0-28.9-0.1-50.5-0.1c0.6,7.2-0.2,14.4-1.1,21.5c-0.6,5.4-1.3,11-1.1,15.6
		c20.1,0.2,42.1,0.3,52.6,0.3c2.6,0,4.7-2.1,4.7-4.7v-37.3C134.8,301.8,132.8,303.9,130.2,303.9z"/>
	<path class="st11" d="M108.9,323.1c-3.6,0-6.6-2.9-6.6-6.6c0-4.1,3.8-7.3,7.9-6.5c3.2,0.7,5.3,3.4,5.3,6.5
		C115.6,320.2,112.6,323.1,108.9,323.1z"/>
</g>
</svg>
